<?xml version="1.0" standalone="no"?>
<!DOCTYPE svg PUBLIC "-//W3C//DTD SVG 20010904//EN"
 "http://www.w3.org/TR/2001/REC-SVG-20010904/DTD/svg10.dtd">
<svg version="1.0" xmlns="http://www.w3.org/2000/svg"
 width="640.000000pt" height="640.000000pt" viewBox="0 0 640.000000 640.000000"
 preserveAspectRatio="xMidYMid meet">
<metadata>
Created by potrace 1.11, written by Peter Selinger 2001-2013
</metadata>
<g transform="translate(0.000000,640.000000) scale(0.100000,-0.100000)"
fill="#000000" stroke="none">
<path d="M1500 6063 c-98 -34 -170 -107 -204 -206 -14 -42 -16 -132 -16 -800
l0 -752 -597 -519 c-327 -286 -609 -538 -624 -560 -62 -84 -59 -22 -59 -1387
0 -1388 -4 -1298 69 -1395 23 -31 59 -60 101 -83 l65 -36 2965 0 2965 0 51 27
c76 40 107 70 145 140 l34 63 0 2645 0 2645 -25 50 c-31 64 -91 124 -155 155
l-50 25 -2310 2 c-2081 2 -2314 1 -2355 -14z m2340 -1583 l0 -320 -320 0 -320
0 0 320 0 320 320 0 320 0 0 -320z m1280 0 l0 -320 -320 0 -320 0 0 320 0 320
320 0 320 0 0 -320z m-2557 -1026 l637 -555 0 -970 0 -969 -480 0 -480 0 0
640 0 640 -320 0 -320 0 0 -640 0 -640 -480 0 -480 0 0 969 0 970 637 555
c350 306 640 556 643 556 3 0 292 -250 643 -556z m2557 -254 l0 -320 -320 0
-320 0 0 320 0 320 320 0 320 0 0 -320z m0 -1280 l0 -320 -320 0 -320 0 0 320
0 320 320 0 320 0 0 -320z"/>
</g>
</svg>
